<?xml version="1.0" encoding="UTF-8" standalone="no"?>
<!-- Created with Inkscape (http://www.inkscape.org/) -->

<svg
   xmlns:dc="http://purl.org/dc/elements/1.1/"
   xmlns:cc="http://creativecommons.org/ns#"
   xmlns:rdf="http://www.w3.org/1999/02/22-rdf-syntax-ns#"
   xmlns:svg="http://www.w3.org/2000/svg"
   xmlns="http://www.w3.org/2000/svg"
   xmlns:sodipodi="http://sodipodi.sourceforge.net/DTD/sodipodi-0.dtd"
   xmlns:inkscape="http://www.inkscape.org/namespaces/inkscape"
   version="1.0"
   width="239.07321"
   height="47.902271"
   id="svg4677"
   sodipodi:version="0.32"
   inkscape:version="0.91 r13725"
   sodipodi:docname="Mars_Inc.svg"
   inkscape:output_extension="org.inkscape.output.svg.inkscape">
  <metadata
     id="metadata2388">
    <rdf:RDF>
      <cc:Work
         rdf:about="">
        <dc:format>image/svg+xml</dc:format>
        <dc:type
           rdf:resource="http://purl.org/dc/dcmitype/StillImage" />
        <dc:title></dc:title>
      </cc:Work>
    </rdf:RDF>
  </metadata>
  <sodipodi:namedview
     inkscape:window-height="837"
     inkscape:window-width="1600"
     inkscape:pageshadow="2"
     inkscape:pageopacity="0.0"
     guidetolerance="10.0"
     gridtolerance="10.0"
     objecttolerance="10.0"
     borderopacity="1.0"
     bordercolor="#666666"
     pagecolor="#ffffff"
     id="base"
     showgrid="false"
     showguides="true"
     inkscape:guide-bbox="true"
     inkscape:zoom="3.3354603"
     inkscape:cx="74.728408"
     inkscape:cy="0.51833489"
     inkscape:window-x="-8"
     inkscape:window-y="-8"
     inkscape:current-layer="svg4677"
     fit-margin-top="0"
     fit-margin-left="0"
     fit-margin-right="0"
     fit-margin-bottom="0"
     inkscape:window-maximized="1" />
  <defs
     id="defs4679">
    <inkscape:perspective
       sodipodi:type="inkscape:persp3d"
       inkscape:vp_x="0 : 526.18109 : 1"
       inkscape:vp_y="0 : 1000 : 0"
       inkscape:vp_z="744.09448 : 526.18109 : 1"
       inkscape:persp3d-origin="372.04724 : 350.78739 : 1"
       id="perspective2390" />
  </defs>
  <g
     id="layer1"
     transform="matrix(0.857759,0,0,0.857759,-136.83543,-309.70383)">
    <path
       d="m 184.05982,445.7929 13.41154,0.0634 0,1.50198 c -2.31289,0.19749 -3.82891,0.74044 -4.54808,1.62884 -0.71929,0.88852 -1.07891,3.03916 -1.07884,6.45193 l 0,4.06154 0,39.68463 c -7e-5,3.46924 0.3948,5.61988 1.18461,6.45193 0.78968,0.83205 2.5384,1.30449 5.24616,1.41731 l 0,1.73461 -21.4077,0 0,-1.73461 c 2.67943,-0.11282 4.41405,-0.60641 5.20385,-1.48077 0.78968,-0.87436 1.18456,-3.11666 1.18461,-6.72693 l 0,-3.89231 0,-41.88463 -21.57693,55.80387 -21.02693,-56.73464 0,43.9154 c -2e-5,5.07694 0.47242,8.1654 1.4173,9.26539 0.94486,1.1 3.01089,1.69231 6.19808,1.77693 l 0,1.6923 -17.26154,0 0.0423,-1.73461 c 3.13077,-0.0282 5.18269,-0.59936 6.15578,-1.71346 0.97306,-1.1141 1.4596,-4.37885 1.45961,-9.79424 l 0,-6.17693 0,-33.16924 c -10e-6,-3.80764 -0.35962,-6.18392 -1.07884,-7.12885 -0.71924,-0.94481 -2.23527,-1.51597 -4.54808,-1.71346 l 0,-1.54164 14.38462,-0.0238 18.02308,48.61156 18.6154,-48.61156 z m 31.05385,39.5154 17.5154,0 -7.91154,-26.52693 -9.60386,26.52693 z m -0.76153,1.98847 -3.04616,8.41923 c -0.4795,1.35386 -0.86026,2.6654 -1.14231,3.93462 -0.28206,1.26924 -0.42308,2.27052 -0.42307,3.00385 -1e-5,1.38205 0.43717,2.39039 1.31153,3.025 0.87435,0.63462 2.55256,1.09295 5.03462,1.375 l -0.0423,1.73461 -17.11394,0 0,-1.73461 c 1.86154,-0.0761 4.97868,-1.19167 6.09279,-2.39039 1.11409,-1.19871 2.30576,-3.54679 3.575,-7.04423 l 20.13847,-52.88059 0.76154,0 15.61154,49.74982 c 0.11278,0.45129 0.29611,1.07181 0.55,1.86154 2.05893,6.88206 7.09295,10.45 10.61864,10.70385 l -0.0423,1.73461 -25.08787,0 0,-1.73461 c 2.56663,-0.28205 4.27304,-0.66987 5.11923,-1.16346 0.84612,-0.49359 1.2692,-1.26218 1.26923,-2.30577 -3e-5,-0.50769 -0.0564,-1.0859 -0.16923,-1.73462 -0.11285,-0.64871 -0.28208,-1.33974 -0.50769,-2.07308 l -3.72308,-12.48077 -18.78462,0 z m 58.55387,-12.39616 c 0.25382,3e-5 0.62754,0.0141 1.12115,0.0423 0.49357,0.0282 0.86729,0.0423 1.12116,0.0423 5.75382,4e-5 10.01279,-1.17753 12.77692,-3.53269 2.76407,-2.35509 4.14612,-6.0006 4.14616,-10.93655 -4e-5,-4.56918 -1.09299,-7.89033 -3.27885,-9.96346 -2.18593,-2.07302 -5.66221,-3.10956 -10.42885,-3.10962 -0.81797,6e-5 -1.68528,0.0424 -2.60192,0.12692 -0.91669,0.0847 -1.86861,0.2116 -2.85577,0.38077 l 0,26.95002 z m 0,20.05385 0,4.48462 c -2e-5,3.30001 0.3737,5.34488 1.12115,6.13462 0.74742,0.78974 2.50318,1.28333 5.26731,1.48077 l 0.0423,1.73461 -22.04232,0 0,-1.73461 c 2.70769,-0.11282 4.45641,-0.61346 5.24616,-1.50193 0.78973,-0.88845 1.1846,-3.27884 1.18461,-7.17115 l 0,-3.42693 0,-38.75386 c -10e-6,-3.80764 -0.35962,-6.18392 -1.07884,-7.12885 -0.71924,-0.94481 -2.23527,-1.51597 -4.54808,-1.71346 l 0,-1.81924 23.90386,-0.25384 c 5.86663,6e-5 10.39355,1.3257 13.58077,3.97692 3.18714,2.65134 4.78073,6.40262 4.78077,11.25385 -4e-5,4.48467 -1.52312,8.02441 -4.56923,10.61924 -3.0462,2.59491 -7.5026,4.14619 -13.36924,4.65385 3.89228,1.12824 6.86792,2.49618 8.92693,4.10385 2.05893,1.60772 3.65252,3.76541 4.78077,6.47308 0.70509,1.74874 1.55124,4.18848 2.53846,7.31923 1.97432,6.26155 4.21662,9.39232 6.72693,9.39231 1.18456,10e-6 2.12238,-0.41602 2.81346,-1.24807 0.69097,-0.83205 1.107,-2.05192 1.24808,-3.65962 l 1.39615,0 c -0.14108,3.58206 -1.01544,6.31795 -2.62307,8.20769 -1.60775,1.88975 -3.87826,2.83462 -6.81154,2.83462 -3.77954,0 -6.66351,-1.43141 -8.65193,-4.29423 -1.9885,-2.86282 -3.56094,-8.07371 -4.71731,-15.6327 -0.81799,-5.33075 -2.0026,-8.74357 -3.55385,-10.23847 -1.55131,-1.49484 -4.17439,-2.24227 -7.86923,-2.24231 -0.11285,4e-5 -0.58528,0.0212 -1.41731,0.0635 -0.83208,0.0423 -1.60066,0.0635 -2.30577,0.0635 l 0,18.02308 z m 45.22695,13.75001 c 0.19743,-1.52308 0.3455,-3.025 0.44423,-4.50577 0.0987,-1.48077 0.14807,-2.98269 0.14807,-4.50577 0,-1.91794 -0.0423,-3.8641 -0.12692,-5.83847 -0.0846,-1.97434 -0.21154,-3.9769 -0.38077,-6.00769 l 1.65,0 c 0.5641,6.34617 2.37628,11.32437 5.43654,14.93462 3.06024,3.61026 6.9596,5.41539 11.69809,5.41539 3.72305,0 6.64933,-1.17052 8.77885,-3.51154 2.12945,-2.34102 3.19419,-5.55641 3.19423,-9.64616 -4e-5,-6.45896 -5.45773,-11.86024 -16.37309,-16.20386 -1.26925,-0.50766 -2.22822,-0.88843 -2.87692,-1.1423 -3.69489,-1.46664 -6.50835,-3.52561 -8.44039,-6.17693 -1.93206,-2.65124 -2.89808,-5.76791 -2.89808,-9.35 0,-5.04867 1.63589,-9.30059 4.9077,-12.75578 3.27178,-3.45507 7.37562,-5.18263 12.31154,-5.18269 2.45382,6e-5 5.04164,0.60647 7.76347,1.81923 2.72176,1.21288 4.26599,1.81929 4.63269,1.81923 0.56407,6e-5 1.04355,-0.24674 1.43846,-0.74039 0.39484,-0.49352 0.7333,-1.24801 1.01539,-2.26346 l 1.77692,0 c -0.31029,1.55135 -0.54299,3.10263 -0.69807,4.65385 -0.15517,1.55134 -0.23274,3.17313 -0.2327,4.86539 -4e-5,0.87441 0.0211,1.95325 0.0635,3.23654 0.0423,1.28338 0.10573,2.7994 0.19039,4.54808 l -1.56539,0 c -0.16927,-5.2179 -1.49491,-9.23713 -3.97692,-12.0577 -2.48209,-2.82046 -5.92311,-4.23071 -10.32308,-4.23077 -3.38464,6e-5 -6.10643,1.05775 -8.16539,3.17307 -2.05899,2.11545 -3.08848,4.90775 -3.08846,8.37693 -2e-5,4.87954 4.62562,9.05389 13.87693,12.52308 0.62048,0.22568 1.09997,0.40902 1.43846,0.55 6.2333,2.36927 10.49932,4.92889 12.79808,7.67885 2.29868,2.75003 3.44803,6.39554 3.44808,10.93655 -5e-5,6.00771 -1.77697,10.96476 -5.33077,14.87116 -3.55389,3.90641 -8.0526,5.85962 -13.49616,5.85962 -3.38464,0 -6.51541,-0.83911 -9.39231,-2.51731 -2.87694,-1.6782 -4.42822,-2.51731 -4.65385,-2.51731 -0.59232,0 -1.19168,0.33846 -1.79808,1.01538 -0.60642,0.67693 -1.16347,1.6359 -1.67116,2.87693 l -1.52307,0 z"
       transform="scale(1.22751,0.814658)"
       id="text4700"
       style="font-style:normal;font-weight:normal;font-size:311.92599487px;font-family:'Bitstream Vera Sans';text-align:start;text-anchor:start;fill:#005a8d;fill-opacity:1;stroke:#005a8d;stroke-width:2.04236007px;stroke-linecap:butt;stroke-linejoin:miter;stroke-opacity:1"
       sodipodi:nodetypes="cccscccsccccsccccccsccccscccscccccccccccsssccccscccccccccsssccccsssssssccccsccccscccscccssscscsssccssscssscccsssccssssccsssssssccsssccssssccssssssscc"
       inkscape:connector-curvature="0" />
  </g>
</svg>
