<?xml version="1.0" encoding="UTF-8" standalone="no"?>
<!-- Created with Inkscape (http://www.inkscape.org/) -->
<svg xmlns:dc="http://purl.org/dc/elements/1.1/" xmlns:cc="http://creativecommons.org/ns#" xmlns:rdf="http://www.w3.org/1999/02/22-rdf-syntax-ns#" xmlns:svg="http://www.w3.org/2000/svg" xmlns="http://www.w3.org/2000/svg" xmlns:sodipodi="http://sodipodi.sourceforge.net/DTD/sodipodi-0.dtd" xmlns:inkscape="http://www.inkscape.org/namespaces/inkscape" version="1.0" width="278.22247" height="55.982143" id="svg4677" sodipodi:version="0.32" inkscape:version="0.46" sodipodi:docname="Mars Inc.svg" inkscape:output_extension="org.inkscape.output.svg.inkscape">
  <metadata id="metadata2388">
    <rdf:RDF>
      <cc:Work rdf:about="">
        <dc:format>image/svg+xml</dc:format>
        <dc:type rdf:resource="http://purl.org/dc/dcmitype/StillImage"/>
      </cc:Work>
    </rdf:RDF>
  </metadata>
  <sodipodi:namedview inkscape:window-height="721" inkscape:window-width="1024" inkscape:pageshadow="2" inkscape:pageopacity="0.0" guidetolerance="10.0" gridtolerance="10.0" objecttolerance="10.0" borderopacity="1.0" bordercolor="#666666" pagecolor="#ffffff" id="base" showgrid="false" showguides="true" inkscape:guide-bbox="true" inkscape:zoom="3.3354603" inkscape:cx="139.11124" inkscape:cy="27.991072" inkscape:window-x="-4" inkscape:window-y="-4" inkscape:current-layer="svg4677"/>
  <defs id="defs4679">
    <inkscape:perspective sodipodi:type="inkscape:persp3d" inkscape:vp_x="0 : 526.18109 : 1" inkscape:vp_y="0 : 1000 : 0" inkscape:vp_z="744.09448 : 526.18109 : 1" inkscape:persp3d-origin="372.04724 : 350.78739 : 1" id="perspective2390"/>
  </defs>
  <g id="layer1" transform="matrix(0.857759, 0, 0, 0.857759, -117.274, -305.112)">
    <path d="M 184.05982,445.7929 L 197.47136,445.85631 L 197.47136,447.35829 C 195.15847,447.55578 193.64245,448.09873 192.92328,448.98713 C 192.20399,449.87565 191.84437,452.02629 191.84444,455.43906 L 191.84444,459.5006 L 191.84444,499.18523 C 191.84437,502.65447 192.23924,504.80511 193.02905,505.63716 C 193.81873,506.46921 195.56745,506.94165 198.27521,507.05447 L 198.27521,508.78908 L 176.86751,508.78908 L 176.86751,507.05447 C 179.54694,506.94165 181.28156,506.44806 182.07136,505.5737 C 182.86104,504.69934 183.25592,502.45704 183.25597,498.84677 L 183.25597,494.95446 L 183.25597,453.06983 L 161.67904,508.8737 L 140.65211,452.13906 L 140.65211,496.05446 C 140.65209,501.1314 141.12453,504.21986 142.06941,505.31985 C 143.01427,506.41985 145.0803,507.01216 148.26749,507.09678 L 148.26749,508.78908 L 131.00595,508.78908 L 131.04825,507.05447 C 134.17902,507.02626 136.23094,506.45511 137.20403,505.34101 C 138.17709,504.22691 138.66363,500.96216 138.66364,495.54677 L 138.66364,489.36984 L 138.66364,456.2006 C 138.66363,452.39296 138.30402,450.01668 137.5848,449.07175 C 136.86556,448.12694 135.34953,447.55578 133.03672,447.35829 L 133.03672,445.81665 L 147.42134,445.7929 L 165.44442,494.40446 L 184.05982,445.7929 z M 215.11367,485.3083 L 232.62907,485.3083 L 224.71753,458.78137 L 215.11367,485.3083 z M 214.35214,487.29677 L 211.30598,495.716 C 210.82648,497.06986 210.44572,498.3814 210.16367,499.65062 C 209.88161,500.91986 209.74059,501.92114 209.7406,502.65447 C 209.74059,504.03652 210.17777,505.04486 211.05213,505.67947 C 211.92648,506.31409 213.60469,506.77242 216.08675,507.05447 L 216.04444,508.78908 L 198.9305,508.78908 L 198.9305,507.05447 C 200.79204,506.97836 203.90918,505.8628 205.02329,504.66408 C 206.13738,503.46537 207.32905,501.11729 208.59829,497.61985 L 228.73676,444.73926 L 229.4983,444.73926 L 245.10984,494.48908 C 245.22262,494.94037 245.40595,495.56089 245.65984,496.35062 C 247.71877,503.23268 252.75279,506.80062 256.27848,507.05447 L 256.23617,508.78908 L 231.1483,508.78908 L 231.1483,507.05447 C 233.71493,506.77242 235.42134,506.3846 236.26753,505.89101 C 237.11365,505.39742 237.53673,504.62883 237.53676,503.58524 C 237.53673,503.07755 237.48032,502.49934 237.36753,501.85062 C 237.25468,501.20191 237.08545,500.51088 236.85984,499.77754 L 233.13676,487.29677 L 214.35214,487.29677 z M 272.90601,474.90061 C 273.15983,474.90064 273.53355,474.91474 274.02716,474.94291 C 274.52073,474.97115 274.89445,474.98526 275.14832,474.98522 C 280.90214,474.98526 285.16111,473.80769 287.92524,471.45253 C 290.68931,469.09744 292.07136,465.45193 292.0714,460.51598 C 292.07136,455.9468 290.97841,452.62565 288.79255,450.55252 C 286.60662,448.4795 283.13034,447.44296 278.3637,447.4429 C 277.54573,447.44296 276.67842,447.48527 275.76178,447.56982 C 274.84509,447.6545 273.89317,447.78142 272.90601,447.95059 L 272.90601,474.90061 z M 272.90601,494.95446 L 272.90601,499.43908 C 272.90599,502.73909 273.27971,504.78396 274.02716,505.5737 C 274.77458,506.36344 276.53034,506.85703 279.29447,507.05447 L 279.33678,508.78908 L 257.29446,508.78908 L 257.29446,507.05447 C 260.00215,506.94165 261.75087,506.44101 262.54062,505.55254 C 263.33035,504.66409 263.72522,502.2737 263.72523,498.38139 L 263.72523,494.95446 L 263.72523,456.2006 C 263.72522,452.39296 263.36561,450.01668 262.64639,449.07175 C 261.92715,448.12694 260.41112,447.55578 258.09831,447.35829 L 258.09831,445.53905 L 282.00217,445.28521 C 287.8688,445.28527 292.39572,446.61091 295.58294,449.26213 C 298.77008,451.91347 300.36367,455.66475 300.36371,460.51598 C 300.36367,465.00065 298.84059,468.54039 295.79448,471.13522 C 292.74828,473.73013 288.29188,475.28141 282.42524,475.78907 C 286.31752,476.91731 289.29316,478.28525 291.35217,479.89292 C 293.4111,481.50064 295.00469,483.65833 296.13294,486.366 C 296.83803,488.11474 297.68418,490.55448 298.6714,493.68523 C 300.64572,499.94678 302.88802,503.07755 305.39833,503.07754 C 306.58289,503.07755 307.52071,502.66152 308.21179,501.82947 C 308.90276,500.99742 309.31879,499.77755 309.45987,498.16985 L 310.85602,498.16985 C 310.71494,501.75191 309.84058,504.4878 308.23295,506.37754 C 306.6252,508.26729 304.35469,509.21216 301.42141,509.21216 C 297.64187,509.21216 294.7579,507.78075 292.76948,504.91793 C 290.78098,502.05511 289.20854,496.84422 288.05217,489.28523 C 287.23418,483.95448 286.04957,480.54166 284.49832,479.04676 C 282.94701,477.55192 280.32393,476.80449 276.62909,476.80445 C 276.51624,476.80449 276.04381,476.82564 275.21178,476.86792 C 274.3797,476.91025 273.61112,476.93141 272.90601,476.93138 L 272.90601,494.95446 z M 318.13296,508.70447 C 318.33039,507.18139 318.47846,505.67947 318.57719,504.1987 C 318.6759,502.71793 318.72526,501.21601 318.72526,499.69293 C 318.72526,497.77499 318.68295,495.82883 318.59834,493.85446 C 318.51372,491.88012 318.3868,489.87756 318.21757,487.84677 L 319.86757,487.84677 C 320.43167,494.19294 322.24385,499.17114 325.30411,502.78139 C 328.36435,506.39165 332.26371,508.19678 337.0022,508.19678 C 340.72525,508.19678 343.65153,507.02626 345.78105,504.68524 C 347.9105,502.34422 348.97524,499.12883 348.97528,495.03908 C 348.97524,488.58012 343.51755,483.17884 332.60219,478.83522 C 331.33294,478.32756 330.37397,477.94679 329.72527,477.69292 C 326.03038,476.22628 323.21692,474.16731 321.28488,471.51599 C 319.35282,468.86475 318.3868,465.74808 318.3868,462.16599 C 318.3868,457.11732 320.02269,452.8654 323.2945,449.41021 C 326.56628,445.95514 330.67012,444.22758 335.60604,444.22752 C 338.05986,444.22758 340.64768,444.83399 343.36951,446.04675 C 346.09127,447.25963 347.6355,447.86604 348.0022,447.86598 C 348.56627,447.86604 349.04575,447.61924 349.44066,447.12559 C 349.8355,446.63207 350.17396,445.87758 350.45605,444.86213 L 352.23297,444.86213 C 351.92268,446.41348 351.68998,447.96476 351.5349,449.51598 C 351.37973,451.06732 351.30216,452.68911 351.3022,454.38137 C 351.30216,455.25578 351.32332,456.33462 351.36566,457.61791 C 351.40793,458.90129 351.47139,460.41731 351.55605,462.16599 L 349.99066,462.16599 C 349.82139,456.94809 348.49575,452.92886 346.01374,450.10829 C 343.53165,447.28783 340.09063,445.87758 335.69066,445.87752 C 332.30602,445.87758 329.58423,446.93527 327.52527,449.05059 C 325.46628,451.16604 324.43679,453.95834 324.43681,457.42752 C 324.43679,462.30706 329.06243,466.48141 338.31374,469.9506 C 338.93422,470.17628 339.41371,470.35962 339.7522,470.5006 C 345.9855,472.86987 350.25152,475.42949 352.55028,478.17945 C 354.84896,480.92948 355.99831,484.57499 355.99836,489.116 C 355.99831,495.12371 354.22139,500.08076 350.66759,503.98716 C 347.1137,507.89357 342.61499,509.84678 337.17143,509.84678 C 333.78679,509.84678 330.65602,509.00767 327.77912,507.32947 C 324.90218,505.65127 323.3509,504.81216 323.12527,504.81216 C 322.53295,504.81216 321.93359,505.15062 321.32719,505.82754 C 320.72077,506.50447 320.16372,507.46344 319.65603,508.70447 L 318.13296,508.70447 z" transform="scale(1.22751, 0.814658)" id="text4700" style="font-size: 311.926px; font-style: normal; font-weight: normal; text-align: start; text-anchor: start; fill: rgb(0, 90, 141); fill-opacity: 1; stroke: rgb(0, 90, 141); stroke-width: 2.04236px; stroke-linecap: butt; stroke-linejoin: miter; stroke-opacity: 1; font-family: Bitstream Vera Sans;" sodipodi:nodetypes="cccscccsccccsccccccsccccscccscccccccccccsssccccscccccccccsssccccsssssssccccsccccscccscccssscscsssccssscssscccsssccssssccsssssssccsssccssssccssssssscc"/>
  </g>
</svg>